<svg width="46" height="46" viewBox="0 0 46 46" fill="none" xmlns="http://www.w3.org/2000/svg">
<path d="M44.9747 42.3036L32.0793 29.399C34.6215 26.3502 36.1506 22.454 36.1506 18.1985C36.1506 8.49012 28.1831 0.596313 18.3826 0.596313C8.58211 0.596313 0.596191 8.49933 0.596191 18.2077C0.596191 27.9161 8.56368 35.8099 18.3642 35.8099C22.5275 35.8099 26.3593 34.3822 29.3989 31.9965L42.3403 44.9379C43.0956 45.6932 44.2194 45.6932 44.9747 44.9379C45.73 44.1826 45.73 43.0589 44.9747 42.3036ZM4.37269 18.2077C4.37269 10.581 10.6546 4.38202 18.3642 4.38202C26.0737 4.38202 32.3556 10.581 32.3556 18.2077C32.3556 25.8344 26.0737 32.0334 18.3642 32.0334C10.6546 32.0334 4.37269 25.8252 4.37269 18.2077Z" fill="white"/>
</svg>
