<svg width="113" height="93" viewBox="0 0 113 93" fill="none" xmlns="http://www.w3.org/2000/svg">
<path d="M111.262 64.6802C106.401 63.1411 102.653 62.4322 99.8148 62.5269C99.6587 62.3766 99.5025 62.2168 99.3395 62.0502C98.6869 61.383 97.9464 60.626 96.8192 60.0722C94.1801 58.7725 92.2666 57.9021 89.474 57.7266C89.8426 54.4301 90.763 50.3143 91.8604 47.1728C91.9952 46.7877 92.1404 46.3927 92.2782 46.0113C92.7613 44.6881 93.2628 43.3251 93.5417 41.8644C94.4683 37.0216 92.7049 32.3807 91.0653 29.3425C89.5815 26.5921 87.6921 24.1028 85.8654 21.6962C85.2782 20.9231 84.6709 20.1232 84.0922 19.3328C79.9682 13.7084 76.4673 7.50308 73.082 1.50321C72.9614 1.28935 72.7892 1.10898 72.5811 0.978367C72.3729 0.847751 72.1353 0.771005 71.8898 0.755047C71.6442 0.739089 71.3984 0.784426 71.1744 0.886966C70.9504 0.989502 70.7554 1.14602 70.607 1.34239C68.5297 4.08943 68.2209 8.00041 69.6873 12.9649C69.8447 13.499 70.0131 14.0281 70.1893 14.554C69.0489 15.3954 68.2185 16.769 67.9499 18.3634C67.6511 20.1236 67.9985 21.8224 68.3095 23.3248C68.4413 23.966 68.5742 24.615 68.7201 25.2664C67.67 26.3305 66.9365 27.7107 66.5341 29.3813C66.1399 31.0188 66.0885 32.8893 66.3863 34.7898C66.4548 35.2308 66.5413 35.6724 66.6458 36.1147C65.3932 35.4432 64.0791 34.9059 62.8355 34.3964L62.6002 34.3004C52.8356 30.3032 43.5759 25.1781 35.01 19.0294C34.7975 18.8768 34.5482 18.7833 34.2873 18.7583C34.0265 18.7334 33.7635 18.7779 33.5252 18.8874C33.2868 18.9968 33.0817 19.1674 32.9305 19.3815C32.7794 19.5957 32.6878 19.8459 32.6649 20.1066C32.3836 23.3158 32.9143 26.5791 34.2428 29.804C35.516 32.8484 37.3617 35.6198 39.6803 37.9686L39.8827 38.1737C39.2184 39.1365 38.9581 40.418 39.2069 41.716C39.472 43.0969 40.2026 44.2217 40.9276 45.2555C41.9714 46.7438 43.2615 48.4477 44.92 49.8097C45.3791 50.1847 45.8582 50.5346 46.3553 50.8577C46.2945 51.1173 46.2602 51.3822 46.2529 51.6485C38.1121 48.6704 29.6648 43.9814 23.3402 38.898C22.873 38.5224 22.3149 38.0914 21.6702 37.592C19.0937 35.5986 15.2018 32.586 13.9944 30.6367C13.797 30.3168 13.4848 30.0842 13.1213 29.9862C12.7577 29.8882 12.3701 29.9322 12.0371 30.1092C11.7042 30.2862 11.4508 30.5829 11.3287 30.9391C11.2065 31.2953 11.2246 31.6842 11.3793 32.0268C12.3443 34.1931 13.4569 36.2905 14.7093 38.3044C15.0626 38.8728 15.4133 39.4481 15.7835 40.0568C16.1538 40.6655 16.5407 41.2947 16.9452 41.95C17.706 43.1774 18.9051 44.5957 19.9636 45.8478C20.2683 46.2075 20.557 46.5497 20.8104 46.8587C24.5678 51.4265 29.0267 55.3828 33.3398 59.2095L37.6576 63.0389C29.7397 64.3972 21.72 64.4514 13.2885 64.5176C9.67182 64.544 5.93151 64.5689 2.23443 64.7105C1.93837 64.7229 1.65258 64.8235 1.41392 64.9994C1.17526 65.1754 0.994686 65.4185 0.895473 65.6975C0.796261 65.9765 0.782967 66.2785 0.857304 66.5647C0.93164 66.8508 1.0902 67.1079 1.31253 67.3029C4.59207 70.1469 8.82531 72.4617 14.2606 74.3786C17.1107 75.3832 19.6687 76.0718 22.0815 76.4825C23.7693 76.7699 25.4753 76.931 27.1287 77.0948L27.1737 77.0996C32.4669 77.6108 37.8336 78.0498 43.0235 78.4755L45.7483 78.6991C47.4911 81.4024 49.9924 83.6952 53.3821 85.6839C56.5307 87.5355 60.0355 88.904 63.4192 90.2338L63.7669 90.3702C64.9435 90.8312 66.2365 91.1118 67.485 91.3789C67.942 91.4771 68.373 91.5706 68.7839 91.67C73.9091 92.9068 78.3873 93.036 83.3062 92.0894C85.6226 91.6429 89.2285 90.2778 91.5963 88.9694C91.7376 88.8914 91.8756 88.8151 92.006 88.7367L92.0636 88.7049C94.0566 87.5349 96.784 85.9339 98.4798 84.3757C101.187 81.8881 102.594 78.885 103.788 75.1733C103.826 75.1522 103.86 75.1243 103.894 75.0968C107.347 72.3945 109.551 69.8239 111.884 67.1024L111.932 67.0461C112.091 66.8602 112.202 66.6378 112.255 66.3988C112.308 66.1598 112.3 65.9118 112.233 65.6767C112.166 65.4417 112.042 65.227 111.872 65.0518C111.701 64.8767 111.49 64.7465 111.256 64.673L111.262 64.6802ZM72.9929 47.0048C73.2047 47.2194 73.4151 47.4295 73.6238 47.6385C73.9024 47.911 74.2778 48.0625 74.6683 48.06C75.0588 48.0576 75.433 47.9014 75.7096 47.6255C75.9863 47.3495 76.1429 46.976 76.1457 46.5861C76.1484 46.1962 75.9969 45.8214 75.7242 45.5431C75.0709 44.89 74.3947 44.2148 73.7902 43.5158C71.4023 40.7495 69.8143 37.4863 69.3205 34.3262C68.9397 31.8959 69.2705 30.1762 69.7783 29.003C69.8119 29.0964 69.8458 29.1886 69.881 29.2811C70.5272 30.9796 71.3891 32.5472 72.2208 34.0619C72.8074 35.1236 74.3398 37.8239 75.9754 39.9094C76.0943 40.0651 76.243 40.1955 76.4129 40.2932C76.5829 40.3908 76.7706 40.4538 76.9653 40.4784C77.16 40.503 77.3577 40.4887 77.547 40.4365C77.7364 40.3842 77.9135 40.2949 78.0682 40.1739C78.2229 40.0528 78.352 39.9023 78.4481 39.7312C78.5443 39.5601 78.6054 39.3717 78.6281 39.177C78.6508 38.9822 78.6345 38.7851 78.5803 38.5969C78.526 38.4087 78.4349 38.2332 78.3121 38.0806C77.2547 36.7308 75.9823 34.7446 74.8206 32.6306C74.0332 31.2056 73.2254 29.7284 72.6533 28.2214C72.3137 27.3143 72.0306 26.387 71.8057 25.4448L71.8012 25.4251C71.5812 24.5284 71.3947 23.6195 71.2118 22.7266C70.9422 21.42 70.6652 20.0711 70.8738 18.8551C70.9499 18.4171 71.1077 17.997 71.3391 17.6167C73.7474 23.4688 77.1672 28.8274 80.497 34.0424C80.712 34.364 81.0447 34.5884 81.4241 34.6676C81.8034 34.7467 82.1991 34.6743 82.5263 34.4659C82.8536 34.2574 83.0864 33.9295 83.1748 33.5524C83.2632 33.1753 83.2003 32.779 82.9995 32.4484C78.9194 26.0561 74.7001 19.446 72.5359 12.1239C71.7536 9.475 71.5516 7.25533 71.9282 5.48814C74.9191 10.7627 78.0553 16.1164 81.7002 21.0865C82.2938 21.8961 82.9118 22.7039 83.5024 23.4888C85.3423 25.9135 87.081 28.203 88.4568 30.7522C89.8688 33.369 91.3929 37.3276 90.6306 41.3191C90.3987 42.5427 89.9651 43.735 89.4988 45.0004C89.3569 45.3957 89.2053 45.7963 89.0649 46.2056C87.8356 49.7221 86.8456 54.2239 86.4823 57.8312C83.0077 58.3505 78.1504 60.3711 75.6421 62.7944C74.0129 60.2469 73.0135 57.2954 72.8554 54.2805C72.7933 53.0176 72.8469 51.7205 72.9056 50.3444C72.958 49.237 73.007 48.1177 72.9888 47.007L72.9929 47.0048ZM27.4733 74.1538L27.4288 74.1499C25.8296 73.9941 24.1804 73.8322 22.5926 73.5646C20.3481 73.1824 17.9512 72.5379 15.2612 71.5874C11.9011 70.402 9.04603 69.0663 6.6316 67.5464C8.87371 67.5042 11.1131 67.4879 13.3061 67.4719C22.5125 67.4042 32.0324 67.3344 41.2027 65.3664C41.4708 65.3087 41.7178 65.178 41.9163 64.9889C42.1148 64.7997 42.257 64.5595 42.3272 64.2948C42.3975 64.0302 42.3929 63.7515 42.314 63.4897C42.2352 63.2278 42.0851 62.9931 41.8806 62.8116L35.3178 56.9905C31.0853 53.2387 26.7132 49.359 23.1045 44.972C22.8394 44.6495 22.5442 44.3014 22.2325 43.9328C21.2406 42.7591 20.1156 41.4287 19.4717 40.3881C19.1696 39.9001 18.8766 39.4237 18.5928 38.9587C19.0262 39.2981 19.4483 39.6247 19.8502 39.936C20.4864 40.4295 21.0312 40.8499 21.4774 41.2086C28.5189 46.8666 38.0858 52.0534 47.0694 55.0802C47.1789 55.1171 47.2923 55.1409 47.4074 55.1512C47.4892 55.2761 47.5742 55.4012 47.6647 55.5266C48.8833 57.2176 50.3857 58.6852 52.1057 59.8646C52.3366 61.4926 53.1594 62.8664 53.7992 63.8058C55.8768 66.8523 58.9243 69.2245 62.4394 70.6655C63.1126 73.2606 64.899 75.5385 67.3492 76.876C68.3175 77.3981 69.385 77.7121 70.4831 77.7978C70.728 78.392 71.0142 78.9684 71.3398 79.5225C70.7613 79.4133 70.1845 79.2937 69.6122 79.1747C63.5556 77.9128 57.6131 76.7368 51.4963 76.2116C48.7532 75.976 45.9685 75.7476 43.277 75.5268C38.0959 75.1035 32.74 74.6649 27.4693 74.156L27.4733 74.1538ZM100.926 69.1326C101.483 70.7538 101.558 72.3846 101.147 73.7176C100.051 77.2438 98.8383 80.037 96.4783 82.2051C95.0166 83.5483 92.3394 85.1195 90.569 86.1591L90.5113 86.1909C88.447 87.4024 84.8954 88.7755 82.7552 89.188C78.2138 90.0623 74.2467 89.9454 69.4909 88.798C69.0465 88.6898 68.5774 88.5888 68.1247 88.4904C66.9886 88.2446 65.8128 87.9901 64.8586 87.6152L64.5101 87.4793C59.0215 85.3278 53.3753 83.1156 49.7227 79.0306L51.2336 79.1591C57.1878 79.6717 63.0336 80.8282 68.9983 82.0713C71.3591 82.5624 74.0372 83.1213 76.7233 82.7916C78.4155 82.5745 80.0508 82.0338 81.5397 81.1991C82.481 80.6762 83.3662 80.0582 84.1814 79.3549C86.1932 77.6264 87.8881 75.361 89.0783 72.8073C89.3873 72.1441 89.7541 71.5091 90.1744 70.9098C90.6628 70.2174 91.2589 69.8331 91.9476 69.7737C92.8728 69.6934 93.9582 70.208 94.9268 71.1844C95.2041 71.4582 95.5788 71.6114 95.9694 71.6108C96.3599 71.6101 96.7349 71.4557 97.0128 71.181C97.2907 70.9062 97.449 70.5334 97.4535 70.1435C97.458 69.7536 97.3082 69.3781 97.0366 69.0985C95.4257 67.4736 93.53 66.6662 91.7003 66.8238C90.1389 66.9588 88.7346 67.8076 87.7481 69.2189C87.2283 69.9623 86.7749 70.7497 86.3931 71.5721C84.7584 75.0835 81.3993 79.0257 76.8082 79.7965C76.6216 79.7205 76.4211 79.6841 76.2194 79.6898C75.6112 79.709 74.8934 79.3113 74.3492 78.6561C74.0851 78.3294 73.8563 77.9757 73.6665 77.601C74.3706 77.4632 75.0673 77.2897 75.7539 77.0813C75.8566 77.0505 75.9558 77.0088 76.0497 76.957C76.3698 76.7798 76.6133 76.4911 76.7336 76.1461C76.8539 75.8011 76.8424 75.4243 76.7013 75.088C76.5603 74.7516 76.2996 74.4795 75.9694 74.3238C75.6392 74.1681 75.2627 74.1399 74.9122 74.2445C72.1057 75.0812 70.2722 75.0919 68.7858 74.2792C67.7105 73.6899 66.8026 72.8384 66.1465 71.8039C67.5324 72.0927 68.9444 72.2401 70.3609 72.2437C70.7545 72.2446 71.1327 72.0893 71.4124 71.8121C71.6921 71.5348 71.8503 71.1583 71.8522 70.7653C71.8541 70.3723 71.6996 69.9951 71.4226 69.7166C71.1456 69.4381 70.7689 69.2811 70.3752 69.2803C67.5995 69.2668 64.8657 68.6171 62.3845 67.3811C59.856 66.1207 57.7373 64.3074 56.258 62.1366C56.2142 62.0727 56.1719 62.0095 56.1309 61.9469C56.4635 62.0694 56.7998 62.1819 57.1396 62.2843C57.7916 62.4806 58.4475 62.6379 59.0847 62.7939C60.4158 63.1146 61.6706 63.4142 62.7211 64.021C63.0611 64.2163 63.4652 64.2688 63.8447 64.1669C64.2242 64.0651 64.5481 63.8172 64.7454 63.4777C64.9426 63.1382 64.9971 62.7347 64.8969 62.3559C64.7967 61.9771 64.55 61.6538 64.2108 61.4571C62.7883 60.6354 61.2617 60.2695 59.7849 59.9152C59.1629 59.7656 58.5752 59.6245 58.0042 59.452C56.7324 59.0687 55.5172 58.5195 54.3901 57.8185C54.348 57.7922 54.3059 57.7658 54.2646 57.739C52.6318 56.7047 51.2123 55.3685 50.0823 53.802C49.8032 53.4208 49.5725 53.0065 49.3954 52.5686C49.6063 52.676 49.8171 52.7813 50.0266 52.8863C51.6569 53.7062 53.3425 54.5535 55.1942 55.1011C55.7857 55.276 56.3837 55.4167 56.9616 55.5537C58.3997 55.8935 59.7578 56.2152 60.7524 56.9796C60.9059 57.1033 61.0827 57.1951 61.2724 57.2496C61.4622 57.304 61.661 57.32 61.8572 57.2967C62.0534 57.2733 62.2431 57.2111 62.4151 57.1136C62.5871 57.0161 62.7379 56.8854 62.8587 56.729C62.9795 56.5726 63.0679 56.3938 63.1186 56.2031C63.1693 56.0124 63.1814 55.8135 63.1541 55.6183C63.1268 55.423 63.0607 55.2353 62.9596 55.0661C62.8586 54.8969 62.7246 54.7497 62.5656 54.633C61.0673 53.4804 59.3314 53.0696 57.6529 52.6724C57.0889 52.5394 56.5562 52.4134 56.0419 52.2613C54.4455 51.7903 52.8801 51.0033 51.3658 50.2418C49.7827 49.4477 48.1424 48.627 46.8122 47.5293C45.4286 46.3926 44.292 44.8859 43.3626 43.5625C42.799 42.7574 42.2797 41.9691 42.1233 41.1587C42.0623 40.8471 42.0755 40.5255 42.1617 40.2195C45.8881 43.2413 50.6115 45.6571 56.2493 47.4208C56.6252 47.5377 57.0326 47.5005 57.3819 47.3175C57.5548 47.2269 57.7083 47.1032 57.8335 46.9535C57.9587 46.8038 58.0533 46.6311 58.1117 46.4451C58.1701 46.2591 58.1913 46.0635 58.1741 45.8696C58.1568 45.6756 58.1015 45.487 58.0112 45.3146C57.9209 45.1422 57.7974 44.9893 57.6478 44.8647C57.4982 44.7401 57.3254 44.6462 57.1392 44.5884C50.6364 42.5516 45.4744 39.626 41.7984 35.8899C38.1936 32.2253 35.9897 27.5944 35.6165 23.0801C43.7113 28.6386 52.3787 33.3186 61.4718 37.0407L61.7088 37.1379C64.3825 38.2315 67.1476 39.3623 68.625 41.5162C70.2306 43.8581 70.0943 46.9481 69.9503 50.2197C69.8891 51.6046 69.8247 53.0355 69.8995 54.4403C70.2621 61.3688 74.4277 68.0043 80.5122 71.3455C80.6827 71.439 80.87 71.4981 81.0636 71.5193C81.2571 71.5405 81.453 71.5235 81.6401 71.4691C81.8272 71.4148 82.0019 71.3242 82.1541 71.2025C82.3063 71.0809 82.4331 70.9306 82.5273 70.7602C82.6215 70.5897 82.6811 70.4025 82.7029 70.2093C82.7247 70.016 82.7081 69.8205 82.6542 69.6338C82.6002 69.4472 82.5099 69.273 82.3885 69.1214C82.267 68.9697 82.1168 68.8435 81.9463 68.7499C80.2595 67.8168 78.7425 66.6069 77.4585 65.1709C79.4927 62.9251 84.9867 60.7449 87.9072 60.6648C90.9878 60.5755 92.5475 61.2696 95.5121 62.7306C96.1845 63.0615 96.6663 63.5537 97.2242 64.1243C97.546 64.4535 97.8794 64.7942 98.2696 65.1226C99.4134 66.0919 100.384 67.5539 100.926 69.1326ZM104.323 70.8701C104.133 69.0122 103.525 67.222 102.547 65.6323C104.161 65.8368 106.045 66.243 108.2 66.8508C106.985 68.2621 105.69 69.604 104.323 70.8701Z" fill="white"/>
</svg>
